<svg xmlns="http://www.w3.org/2000/svg" id="_Слой_1" data-name="Слой_1" version="1.1" viewBox="0 0 291.7 126"><defs><style>.st1{display:none;}.st2{font-family:Seravek-Light,Seravek;font-size:100px;font-weight:300;fill:white}</style></defs><text class="st2" transform="matrix(.9 0 0 1 -7.4 109.1)"><tspan x="0" y="0">L</tspan></text><text class="st2" transform="translate(194.8 105)"><tspan x="0" y="0">y</tspan></text><text class="st2" transform="matrix(.8 0 0 1 26.6 108.1)"><tspan x="0" y="0">ensif</tspan></text><path fill="none" d="m222.4 5.9 63-19.7 19.7 63-63 19.7-19.7-63Z"/><path d="M264.4 49.5 267 38l-18.2 5.7c4.2 3.9 9.8 6 15.6 5.8ZM245 39.2l11.2-3.5-14-12.9c-.8 3.8-.7 7.7.5 11.4.6 1.8 1.3 3.5 2.3 5Zm-.7-22 8.7 8 4.2-18.6c-5.5 1.7-10.1 5.5-12.8 10.6ZM263 5.6l-2.6 11.5 18.2-5.7c-4.2-3.9-9.8-6-15.6-5.8Zm19.4 10.3-11.2 3.5 14 12.9c.8-3.8.7-7.7-.5-11.4-.6-1.8-1.3-3.5-2.3-5Zm.7 22-8.7-8-4.2 18.6c5.5-1.7 10.1-5.5 12.8-10.6Zm-11.2 15.9c-14.5 4.5-29.9-3.5-34.4-18s3.5-29.9 18-34.4 29.9 3.5 34.4 18-3.5 29.9-18 34.4Zm-6.8-32.5-6.1 1.9-1.4 6.2 4.7 4.3 6.1-1.9 1.4-6.2-4.7-4.3Z" fill="white"/></svg>
