<?xml version="1.0" encoding="UTF-8"?>
<svg id="_Слой_1" xmlns="http://www.w3.org/2000/svg" version="1.1" viewBox="0 0 55.2 55.1">
  <!-- Generator: Adobe Illustrator 29.0.1, SVG Export Plug-In . SVG Version: 2.1.0 Build 192)  -->
  <path d="M28.2,49.5l2.6-11.5-18.2,5.7c4.2,3.9,9.8,6,15.6,5.8ZM8.8,39.2l11.2-3.5-14-12.9c-.8,3.8-.7,7.7.5,11.4.6,1.8,1.3,3.5,2.3,5h0ZM8.1,17.2l8.7,8,4.2-18.6c-5.5,1.7-10.1,5.5-12.8,10.6h-.1ZM26.8,5.6l-2.6,11.5,18.2-5.7c-4.2-3.9-9.8-6-15.6-5.8ZM46.2,15.9l-11.2,3.5,14,12.9c.8-3.8.7-7.7-.5-11.4-.6-1.8-1.3-3.5-2.3-5ZM46.9,37.9l-8.7-8-4.2,18.6c5.5-1.7,10.1-5.5,12.8-10.6h.1ZM35.7,53.8c-14.5,4.5-29.9-3.5-34.4-18S4.8,5.9,19.3,1.4s29.9,3.5,34.4,18-3.5,29.9-18,34.4ZM28.9,21.3l-6.1,1.9-1.4,6.2,4.7,4.3,6.1-1.9,1.4-6.2-4.7-4.3Z"/>
</svg>